<svg id="图层_1" xmlns="http://www.w3.org/2000/svg" xmlns:xlink="http://www.w3.org/1999/xlink" viewBox="0 0 11.8 14.8"><style>.st7{clip-path:url(#SVGID_12_);fill:none;stroke:#fff;stroke-width:.8125;stroke-linecap:square;stroke-miterlimit:10}</style><path fill="none" d="M-950.9-528.2h1920v1080h-1920z"/><defs><path id="SVGID_1_" d="M7.1.4l4.3 4.1v9.1c0 .4-.4.8-.8.8H1.2c-.4 0-.8-.4-.8-.8V1.2c0-.4.4-.8.8-.8h5.9z"/></defs><clipPath id="SVGID_2_"><use xlink:href="#SVGID_1_" overflow="visible"/></clipPath><g clip-path="url(#SVGID_2_)"><defs><path id="SVGID_3_" d="M-349.6-365.6h1920v1080h-1920z"/></defs><clipPath id="SVGID_4_"><use xlink:href="#SVGID_3_" overflow="visible"/></clipPath><path clip-path="url(#SVGID_4_)" fill="#0090da" d="M-4.6-4.6h21v24h-21z"/></g><defs><path id="SVGID_5_" d="M-349.6-365.6h1920v1080h-1920z"/></defs><clipPath id="SVGID_6_"><use xlink:href="#SVGID_5_" overflow="visible"/></clipPath><path d="M7.1.4l4.3 4.1v9.1c0 .4-.4.8-.8.8H1.2c-.4 0-.8-.4-.8-.8V1.2c0-.4.4-.8.8-.8h5.9z" clip-path="url(#SVGID_6_)" fill="none" stroke="#2980b9" stroke-width=".813" stroke-miterlimit="10"/><g><defs><path id="SVGID_7_" d="M7.4.4v4h4z"/></defs><clipPath id="SVGID_8_"><use xlink:href="#SVGID_7_" overflow="visible"/></clipPath><g clip-path="url(#SVGID_8_)"><defs><path id="SVGID_9_" d="M-349.6-365.6h1920v1080h-1920z"/></defs><clipPath id="SVGID_10_"><use xlink:href="#SVGID_9_" overflow="visible"/></clipPath><path clip-path="url(#SVGID_10_)" fill="#0090da" d="M2.4-4.6h14v14h-14z"/></g></g><g><defs><path id="SVGID_11_" d="M-349.6-365.6h1920v1080h-1920z"/></defs><clipPath id="SVGID_12_"><use xlink:href="#SVGID_11_" overflow="visible"/></clipPath><path clip-path="url(#SVGID_12_)" fill="none" stroke="#2980b9" stroke-width=".813" stroke-linejoin="round" stroke-miterlimit="10" d="M7.4.4v4h4z"/><path class="st7" d="M3.2 10.6h5.5M3.2 7.4h5.5M3.2 4.4H5"/></g></svg>