<svg id="_1" xmlns="http://www.w3.org/2000/svg" xmlns:xlink="http://www.w3.org/1999/xlink" viewBox="0 0 25 29"><style>.st2{clip-path:url(#SVGID_6_)}</style><defs><path id="SVGID_1_" d="M1.8 0h22c.6 0 1 .4 1 1v4c0 .6-.4 1-1 1h-22c-.6 0-1-.4-1-1V1c0-.6.5-1 1-1z"/></defs><clipPath id="SVGID_2_"><use xlink:href="#SVGID_1_" overflow="visible"/></clipPath><g clip-path="url(#SVGID_2_)"><defs><path id="SVGID_3_" d="M-1383.2-89h1920V991h-1920z"/></defs><clipPath id="SVGID_4_"><use xlink:href="#SVGID_3_" overflow="visible"/></clipPath><g clip-path="url(#SVGID_4_)"><defs><path id="SVGID_5_" d="M-14.2-15h54v36h-54z"/></defs><clipPath id="SVGID_6_"><use xlink:href="#SVGID_5_" overflow="visible"/></clipPath><g class="st2"><defs><path id="SVGID_7_" d="M1.8 0h22c.6 0 1 .4 1 1v4c0 .6-.4 1-1 1h-22c-.6 0-1-.4-1-1V1c0-.6.5-1 1-1z"/></defs><clipPath id="SVGID_8_"><use xlink:href="#SVGID_7_" overflow="visible"/></clipPath><g clip-path="url(#SVGID_8_)"><defs><path id="SVGID_9_" d="M.8 0h24v6H.8z"/></defs><clipPath id="SVGID_10_"><use xlink:href="#SVGID_9_" overflow="visible"/></clipPath><path d="M1.8 0h22c.6 0 1 .4 1 1v4c0 .6-.4 1-1 1h-22c-.6 0-1-.4-1-1V1c0-.6.5-1 1-1z" clip-path="url(#SVGID_10_)" fill="#fff"/></g></g><g class="st2"><defs><path id="SVGID_11_" d="M.8 0h24v6H.8z"/></defs><clipPath id="SVGID_12_"><use xlink:href="#SVGID_11_" overflow="visible"/></clipPath><path d="M1.8 0h22c.6 0 1 .4 1 1v4c0 .6-.4 1-1 1h-22c-.6 0-1-.4-1-1V1c0-.6.5-1 1-1z" clip-path="url(#SVGID_12_)" fill="none" stroke-width="3" stroke-miterlimit="10"/></g></g></g><g><defs><path id="SVGID_13_" d="M2.7 8H23c.6 0 1 .4 1 1 0 .2-.1.4-.2.5l-7.1 11.2V27c0 .6-.4 1-1 1h-5.6c-.6 0-1-.4-1-1v-6.2L1.8 9.5c-.3-.5-.1-1.1.3-1.4.2-.1.4-.1.6-.1z"/></defs><clipPath id="SVGID_14_"><use xlink:href="#SVGID_13_" overflow="visible"/></clipPath><g clip-path="url(#SVGID_14_)"><defs><path id="SVGID_15_" d="M-1383.2-89h1920V991h-1920z"/></defs><clipPath id="SVGID_16_"><use xlink:href="#SVGID_15_" overflow="visible"/></clipPath><path clip-path="url(#SVGID_16_)" fill="#fff" d="M-3.3 3H29v30H-3.3z"/></g></g><g><defs><path id="SVGID_17_" d="M-1383.2-89h1920V991h-1920z"/></defs><clipPath id="SVGID_18_"><use xlink:href="#SVGID_17_" overflow="visible"/></clipPath><path d="M2.7 8H23c.6 0 1 .4 1 1 0 .2-.1.4-.2.5l-7.1 11.2V27c0 .6-.4 1-1 1h-5.6c-.6 0-1-.4-1-1v-6.2L1.8 9.5c-.3-.5-.1-1.1.3-1.4.2-.1.4-.1.6-.1z" clip-path="url(#SVGID_18_)" fill="none" stroke-width="1.5" stroke-linejoin="round" stroke-miterlimit="10"/></g></svg>