<svg xmlns="http://www.w3.org/2000/svg" xmlns:xlink="http://www.w3.org/1999/xlink" viewBox="0 0 15 12.1"><defs><path id="a" d="M0 1.2C0 .5.5 0 1.2 0h5.1c.6 0 1.2.5 1.2 1.2H14c.6 0 1.2.5 1.2 1.2V11c0 .6-.5 1.2-1.2 1.2H1.2C.5 12.1 0 11.6 0 11V1.2z"/></defs><clipPath id="b"><use xlink:href="#a" overflow="visible"/></clipPath><g clip-path="url(#b)"><defs><path id="c" d="M-310-343h1920V737H-310z"/></defs><clipPath id="d"><use xlink:href="#c" overflow="visible"/></clipPath><path clip-path="url(#d)" fill="#2980b9" d="M-5-5h25v22.1H-5z"/></g><g><defs><path id="e" d="M1.2 11.5C.5 11.5 0 11 0 10.4V4.6c0-.6.5-1.1 1.2-1.1h5c.6 0 1.1-.5 1.1-1v-.1h6.5c.6 0 1.2.5 1.2 1.2v6.9c0 .6-.5 1.2-1.2 1.2H1.2z"/></defs><clipPath id="f"><use xlink:href="#e" overflow="visible"/></clipPath><g clip-path="url(#f)"><defs><path id="g" d="M-310-343h1920V737H-310z"/></defs><clipPath id="h"><use xlink:href="#g" overflow="visible"/></clipPath><path clip-path="url(#h)" fill="#0090da" d="M-5-2.7h25v19.2H-5z"/></g></g></svg>