<svg xmlns="http://www.w3.org/2000/svg" xmlns:xlink="http://www.w3.org/1999/xlink" viewBox="0 0 15 11.2"><defs><path id="a" d="M6.3 0c.6 0 1.1.5 1.1 1.1h6.5c.6 0 1.2.5 1.2 1.2V10c0 .6-.5 1.2-1.2 1.2H1.2C.5 11.2 0 10.7 0 10V1.1C0 .5.5 0 1.2 0h5.1z"/></defs><clipPath id="b"><use xlink:href="#a" overflow="visible"/></clipPath><g clip-path="url(#b)"><defs><path id="c" d="M-310-319h1920V761H-310z"/></defs><clipPath id="d"><use xlink:href="#c" overflow="visible"/></clipPath><path clip-path="url(#d)" fill="silver" d="M-5-5h25v21.2H-5z"/></g><g><defs><path id="e" d="M1.2 10.7c-.7 0-1.2-.6-1.2-1.2V4.3c0-.6.5-1.2 1.2-1.2h5.1c.5 0 1-.4 1.1-.9v-.1h6.5c.6 0 1.2.5 1.2 1.2v6.2c0 .6-.5 1.2-1.2 1.2H1.2z"/></defs><clipPath id="f"><use xlink:href="#e" overflow="visible"/></clipPath><g clip-path="url(#f)"><defs><path id="g" d="M-310-319h1920V761H-310z"/></defs><clipPath id="h"><use xlink:href="#g" overflow="visible"/></clipPath><path clip-path="url(#h)" fill="#d8d8d8" d="M-5-2.9h25v18.5H-5z"/></g></g></svg>