<svg xmlns="http://www.w3.org/2000/svg" viewBox="0 0 24 24">
  <defs/>
  <path fill="#5f259f" stroke="#471c77" stroke-miterlimit="10" d="M21.9 24H2.1C1 24 0 23 0 21.9V2.1C0 1 1 0 2.1 0h19.8C23 0 24 1 24 2.1v19.8c0 1.1-1 2.1-2.1 2.1z"/>
  <path fill="#fff" d="M8 17.8a2 2 0 01-1.6-.7c-.9-.9-.9-2.4 0-3.3l7.2-7.2a3 3 0 012.2-.9c.8 0 1.6.3 2.2.9.6.6.9 1.3.9 2.2 0 .8-.3 1.6-.9 2.2l-5.6 5.6c-.2.2-.4.2-.6 0-.2-.2-.2-.4 0-.6l5.6-5.6c.4-.4.6-1 .6-1.5a2 2 0 00-2.1-2.1 2 2 0 00-1.5.6l-7.2 7.2c-.6.6-.6 1.5 0 2 .5.5 1.5.5 2 0l4.8-4.8.2-.5-.2-.5c-.3-.3-.7-.3-1 0L9.5 14c-.2.2-.4.2-.6 0-.2-.2-.2-.4 0-.6l3.3-3.3c.6-.6 1.6-.6 2.2 0 .3.3.5.7.5 1.1 0 .4-.2.8-.5 1.1l-4.8 4.8a2 2 0 01-1.6.7z"/>
</svg>